<svg width="660" height="131" viewBox="0 0 660 131" fill="none" xmlns="http://www.w3.org/2000/svg">
<mask id="path-1-outside-1_37_159" maskUnits="userSpaceOnUse" x="27" y="31" width="607" height="70" fill="black">
<rect fill="white" x="27" y="31" width="607" height="70"/>
<path d="M35.1094 41.8916H65.458V54.0205H51.5098V57.4746H65.4053V67.8105H51.5098V71.792H66.3809V84H35.1094V41.8916ZM96.835 61.0605C92.9326 60.1465 90.0938 59.6895 88.3184 59.6895C87.8086 59.6895 87.4131 59.8037 87.1318 60.0322C86.8682 60.2607 86.7363 60.5156 86.7363 60.7969C86.7363 61.377 87.457 61.9658 88.8984 62.5635C90.3574 63.1436 91.6934 63.7148 92.9062 64.2773C94.1191 64.8398 95.165 65.5254 96.0439 66.334C97.9424 68.0918 98.8916 70.7109 98.8916 74.1914C98.8916 77.6543 97.6348 80.3174 95.1211 82.1807C92.6074 84.0439 89.2061 84.9756 84.917 84.9756C80.6279 84.9756 77.2002 84.5801 74.6338 83.7891C73.5088 83.4551 72.6475 83.0596 72.0498 82.6025V72.8203C72.2959 72.8379 72.7266 72.9521 73.3418 73.1631C73.957 73.374 74.9766 73.708 76.4004 74.165C77.8242 74.6045 79.1162 74.8242 80.2764 74.8242C81.4541 74.8242 82.043 74.3936 82.043 73.5322C82.043 72.8643 81.5156 72.2139 80.4609 71.5811C79.9863 71.2998 79.4502 71.0098 78.8525 70.7109C76.374 69.498 74.5986 68.1006 73.5264 66.5186C72.4717 64.9189 71.9443 63.0469 71.9443 60.9023C71.9443 57.0879 73.4912 54.2402 76.585 52.3594C79.1865 50.7773 82.5879 49.9863 86.7891 49.9863C89.7246 49.9863 92.6689 50.2764 95.6221 50.8564C96.2549 50.9795 96.6592 51.0674 96.835 51.1201V61.0605ZM123.202 74.0068C124.978 74.0068 127.544 72.75 130.901 70.2363V83.1299C125.136 85.3096 119.818 85.6172 114.949 84.0527C110.08 82.4883 106.626 79.6934 104.587 75.668C103.567 73.6289 103.058 71.2383 103.058 68.4961C103.058 62.9766 104.956 58.5029 108.753 55.0752C112.55 51.6475 117.489 49.9336 123.571 49.9336C126.085 49.9336 128.353 50.3115 130.374 51.0674V61.2188C129.899 60.8145 129.231 60.6123 128.37 60.6123C127.509 60.6123 126.586 60.8848 125.602 61.4297C124.617 61.9746 123.721 62.7041 122.912 63.6182C121.049 65.7275 120.117 67.8984 120.117 70.1309C120.135 72.3457 120.812 73.5938 122.147 73.875C122.499 73.9453 122.851 73.9893 123.202 74.0068ZM159.8 60.5596C159.448 60.3838 158.991 60.2959 158.429 60.2959C157.884 60.2959 157.277 60.4629 156.609 60.7969C155.941 61.1133 155.282 61.5527 154.632 62.1152C153.261 63.3105 152.109 64.7607 151.178 66.4658C150.246 68.1709 149.78 69.7441 149.78 71.1855C149.78 72.6094 150.325 73.5674 151.415 74.0596C151.802 74.2354 152.276 74.3232 152.839 74.3232C153.401 74.3232 153.99 74.1562 154.605 73.8223C155.221 73.4707 155.836 73.0049 156.451 72.4248C157.734 71.2119 158.859 69.7441 159.826 68.0215C160.793 66.2812 161.276 64.7256 161.276 63.3545C161.276 61.9834 160.784 61.0518 159.8 60.5596ZM154.685 84.9756C149.657 84.9756 145.324 83.3848 141.686 80.2031C137.801 76.8281 135.858 72.583 135.858 67.4678C135.858 62.335 137.678 58.1426 141.316 54.8906C144.955 51.6211 149.446 49.9863 154.79 49.9863C160.134 49.9863 164.625 51.5859 168.264 54.7852C171.902 57.9668 173.73 62.2295 173.748 67.5732C173.766 71.001 172.896 74.0332 171.138 76.6699C169.38 79.3066 167.033 81.3457 164.098 82.7871C161.162 84.2285 158.024 84.958 154.685 84.9756ZM193.972 84H179.021V39.624H193.972V84ZM216.041 54.7324C218.414 51.5684 222.009 49.9863 226.825 49.9863C228.196 49.9863 229.655 50.3027 231.202 50.9355C232.749 51.5684 234.094 52.4824 235.236 53.6777C237.697 56.2266 238.928 59.6016 238.928 63.8027V84H223.16V69.7881C223.16 66.958 222.703 64.6377 221.789 62.8271C220.875 60.999 219.803 60.085 218.572 60.085C216.885 60.085 216.041 61.2363 216.041 63.5391V84H200.379V39.624H216.041V54.7324ZM248.736 81.0996C247.33 79.7812 246.205 78.1289 245.361 76.1426C244.535 74.1387 244.122 71.9854 244.122 69.6826C244.122 67.3799 244.351 65.3848 244.808 63.6973C245.722 60.3398 247.321 57.5186 249.606 55.2334C250.696 54.1084 251.909 53.1592 253.245 52.3857C255.987 50.7861 258.879 49.9863 261.92 49.9863C264.979 49.9863 267.659 50.9971 269.962 53.0186C270.7 53.6689 271.342 54.416 271.887 55.2598L275.657 51.2256H284.306V84H275.657L271.887 78.542C269.004 82.7959 264.636 84.9316 258.782 84.9492C257.165 84.9668 255.434 84.6504 253.588 84C251.76 83.3672 250.143 82.4004 248.736 81.0996ZM270.094 61.166C269.461 60.7969 268.705 60.6123 267.826 60.6123C266.947 60.6123 266.016 60.9287 265.031 61.5615C264.064 62.1768 263.194 62.959 262.421 63.9082C260.698 66.0352 259.837 68.1973 259.837 70.3945C259.837 71.9414 260.312 73.0312 261.261 73.6641C262.14 74.2441 263.476 74.165 265.269 73.4268C267.079 72.6709 268.688 71.6953 270.094 70.5V61.166ZM307.746 81.0996C306.34 79.7812 305.215 78.1289 304.371 76.1426C303.545 74.1387 303.132 71.9854 303.132 69.6826C303.132 67.3799 303.36 65.3848 303.817 63.6973C304.731 60.3398 306.331 57.5186 308.616 55.2334C309.706 54.1084 310.919 53.1592 312.255 52.3857C314.997 50.7861 317.889 49.9863 320.93 49.9863C323.988 49.9863 326.669 50.9971 328.972 53.0186C329.71 53.6689 330.352 54.416 330.896 55.2598L334.667 51.2256H343.315V84H334.667L330.896 78.542C328.014 82.7959 323.646 84.9316 317.792 84.9492C316.175 84.9668 314.443 84.6504 312.598 84C310.77 83.3672 309.152 82.4004 307.746 81.0996ZM329.104 61.166C328.471 60.7969 327.715 60.6123 326.836 60.6123C325.957 60.6123 325.025 60.9287 324.041 61.5615C323.074 62.1768 322.204 62.959 321.431 63.9082C319.708 66.0352 318.847 68.1973 318.847 70.3945C318.847 71.9414 319.321 73.0312 320.271 73.6641C321.149 74.2441 322.485 74.165 324.278 73.4268C326.089 72.6709 327.697 71.6953 329.104 70.5V61.166ZM401.297 63.2227C401.279 68.25 399.618 72.7324 396.313 76.6699C393.853 79.6055 390.504 81.6973 386.268 82.9453C384.07 83.5957 381.574 83.9473 378.779 84V92.543H363.117V51.2256H371.766L375.431 56.2881C379.368 52.0869 383.508 49.9863 387.85 49.9863C392.191 49.9863 395.514 51.2344 397.816 53.7305C400.137 56.2266 401.297 59.3906 401.297 63.2227ZM386.663 61.0869C386.294 60.9463 385.837 60.876 385.292 60.876C384.185 60.876 382.989 61.5176 381.706 62.8008C380.44 64.0664 379.465 65.5166 378.779 67.1514V74.7188C379.078 74.5078 379.518 74.2266 380.098 73.875C380.695 73.5059 381.346 73.0664 382.049 72.5566C386.197 69.6035 388.271 66.5977 388.271 63.5391C388.271 62.3086 387.735 61.4912 386.663 61.0869ZM410.156 81.0996C408.75 79.7812 407.625 78.1289 406.781 76.1426C405.955 74.1387 405.542 71.9854 405.542 69.6826C405.542 67.3799 405.771 65.3848 406.228 63.6973C407.142 60.3398 408.741 57.5186 411.026 55.2334C412.116 54.1084 413.329 53.1592 414.665 52.3857C417.407 50.7861 420.299 49.9863 423.34 49.9863C426.398 49.9863 429.079 50.9971 431.382 53.0186C432.12 53.6689 432.762 54.416 433.307 55.2598L437.077 51.2256H445.726V84H437.077L433.307 78.542C430.424 82.7959 426.056 84.9316 420.202 84.9492C418.585 84.9668 416.854 84.6504 415.008 84C413.18 83.3672 411.562 82.4004 410.156 81.0996ZM431.514 61.166C430.881 60.7969 430.125 60.6123 429.246 60.6123C428.367 60.6123 427.436 60.9287 426.451 61.5615C425.484 62.1768 424.614 62.959 423.841 63.9082C422.118 66.0352 421.257 68.1973 421.257 70.3945C421.257 71.9414 421.731 73.0312 422.681 73.6641C423.56 74.2441 424.896 74.165 426.688 73.4268C428.499 72.6709 430.107 71.6953 431.514 70.5V61.166ZM467.03 84H452.08V39.624H467.03V84ZM477.076 81.0996C475.67 79.7812 474.545 78.1289 473.701 76.1426C472.875 74.1387 472.462 71.9854 472.462 69.6826C472.462 67.3799 472.69 65.3848 473.147 63.6973C474.062 60.3398 475.661 57.5186 477.946 55.2334C479.036 54.1084 480.249 53.1592 481.585 52.3857C484.327 50.7861 487.219 49.9863 490.26 49.9863C493.318 49.9863 495.999 50.9971 498.302 53.0186C499.04 53.6689 499.682 54.416 500.227 55.2598L503.997 51.2256H512.646V84H503.997L500.227 78.542C497.344 82.7959 492.976 84.9316 487.122 84.9492C485.505 84.9668 483.773 84.6504 481.928 84C480.1 83.3672 478.482 82.4004 477.076 81.0996ZM498.434 61.166C497.801 60.7969 497.045 60.6123 496.166 60.6123C495.287 60.6123 494.355 60.9287 493.371 61.5615C492.404 62.1768 491.534 62.959 490.761 63.9082C489.038 66.0352 488.177 68.1973 488.177 70.3945C488.177 71.9414 488.651 73.0312 489.601 73.6641C490.479 74.2441 491.815 74.165 493.608 73.4268C495.419 72.6709 497.027 71.6953 498.434 70.5V61.166ZM536.719 60.876L541.201 51.2256H553.778L537.615 83.9473C537.299 84.6328 536.613 84.9756 535.559 84.9756C534.504 84.9756 533.792 84.6328 533.423 83.9473L516.416 51.2256H531.841L536.719 60.876ZM581.147 63.5918C579.53 63.5918 577.869 64.1807 576.164 65.3584C574.459 66.5361 573.598 67.6523 573.58 68.707V84H557.707V51.2256H573.58V54.7324C574.477 53.3789 575.584 52.2979 576.902 51.4893C578.238 50.6807 579.653 50.1973 581.147 50.0391V63.5918ZM589.453 81.0996C588.047 79.7812 586.922 78.1289 586.078 76.1426C585.252 74.1387 584.839 71.9854 584.839 69.6826C584.839 67.3799 585.067 65.3848 585.524 63.6973C586.438 60.3398 588.038 57.5186 590.323 55.2334C591.413 54.1084 592.626 53.1592 593.962 52.3857C596.704 50.7861 599.596 49.9863 602.637 49.9863C605.695 49.9863 608.376 50.9971 610.679 53.0186C611.417 53.6689 612.059 54.416 612.604 55.2598L616.374 51.2256H625.022V84H616.374L612.604 78.542C609.721 82.7959 605.353 84.9316 599.499 84.9492C597.882 84.9668 596.15 84.6504 594.305 84C592.477 83.3672 590.859 82.4004 589.453 81.0996ZM610.811 61.166C610.178 60.7969 609.422 60.6123 608.543 60.6123C607.664 60.6123 606.732 60.9287 605.748 61.5615C604.781 62.1768 603.911 62.959 603.138 63.9082C601.415 66.0352 600.554 68.1973 600.554 70.3945C600.554 71.9414 601.028 73.0312 601.978 73.6641C602.856 74.2441 604.192 74.165 605.985 73.4268C607.796 72.6709 609.404 71.6953 610.811 70.5V61.166Z"/>
</mask>
<path d="M35.1094 41.8916H65.458V54.0205H51.5098V57.4746H65.4053V67.8105H51.5098V71.792H66.3809V84H35.1094V41.8916ZM96.835 61.0605C92.9326 60.1465 90.0938 59.6895 88.3184 59.6895C87.8086 59.6895 87.4131 59.8037 87.1318 60.0322C86.8682 60.2607 86.7363 60.5156 86.7363 60.7969C86.7363 61.377 87.457 61.9658 88.8984 62.5635C90.3574 63.1436 91.6934 63.7148 92.9062 64.2773C94.1191 64.8398 95.165 65.5254 96.0439 66.334C97.9424 68.0918 98.8916 70.7109 98.8916 74.1914C98.8916 77.6543 97.6348 80.3174 95.1211 82.1807C92.6074 84.0439 89.2061 84.9756 84.917 84.9756C80.6279 84.9756 77.2002 84.5801 74.6338 83.7891C73.5088 83.4551 72.6475 83.0596 72.0498 82.6025V72.8203C72.2959 72.8379 72.7266 72.9521 73.3418 73.1631C73.957 73.374 74.9766 73.708 76.4004 74.165C77.8242 74.6045 79.1162 74.8242 80.2764 74.8242C81.4541 74.8242 82.043 74.3936 82.043 73.5322C82.043 72.8643 81.5156 72.2139 80.4609 71.5811C79.9863 71.2998 79.4502 71.0098 78.8525 70.7109C76.374 69.498 74.5986 68.1006 73.5264 66.5186C72.4717 64.9189 71.9443 63.0469 71.9443 60.9023C71.9443 57.0879 73.4912 54.2402 76.585 52.3594C79.1865 50.7773 82.5879 49.9863 86.7891 49.9863C89.7246 49.9863 92.6689 50.2764 95.6221 50.8564C96.2549 50.9795 96.6592 51.0674 96.835 51.1201V61.0605ZM123.202 74.0068C124.978 74.0068 127.544 72.75 130.901 70.2363V83.1299C125.136 85.3096 119.818 85.6172 114.949 84.0527C110.08 82.4883 106.626 79.6934 104.587 75.668C103.567 73.6289 103.058 71.2383 103.058 68.4961C103.058 62.9766 104.956 58.5029 108.753 55.0752C112.55 51.6475 117.489 49.9336 123.571 49.9336C126.085 49.9336 128.353 50.3115 130.374 51.0674V61.2188C129.899 60.8145 129.231 60.6123 128.37 60.6123C127.509 60.6123 126.586 60.8848 125.602 61.4297C124.617 61.9746 123.721 62.7041 122.912 63.6182C121.049 65.7275 120.117 67.8984 120.117 70.1309C120.135 72.3457 120.812 73.5938 122.147 73.875C122.499 73.9453 122.851 73.9893 123.202 74.0068ZM159.8 60.5596C159.448 60.3838 158.991 60.2959 158.429 60.2959C157.884 60.2959 157.277 60.4629 156.609 60.7969C155.941 61.1133 155.282 61.5527 154.632 62.1152C153.261 63.3105 152.109 64.7607 151.178 66.4658C150.246 68.1709 149.78 69.7441 149.78 71.1855C149.78 72.6094 150.325 73.5674 151.415 74.0596C151.802 74.2354 152.276 74.3232 152.839 74.3232C153.401 74.3232 153.99 74.1562 154.605 73.8223C155.221 73.4707 155.836 73.0049 156.451 72.4248C157.734 71.2119 158.859 69.7441 159.826 68.0215C160.793 66.2812 161.276 64.7256 161.276 63.3545C161.276 61.9834 160.784 61.0518 159.8 60.5596ZM154.685 84.9756C149.657 84.9756 145.324 83.3848 141.686 80.2031C137.801 76.8281 135.858 72.583 135.858 67.4678C135.858 62.335 137.678 58.1426 141.316 54.8906C144.955 51.6211 149.446 49.9863 154.79 49.9863C160.134 49.9863 164.625 51.5859 168.264 54.7852C171.902 57.9668 173.73 62.2295 173.748 67.5732C173.766 71.001 172.896 74.0332 171.138 76.6699C169.38 79.3066 167.033 81.3457 164.098 82.7871C161.162 84.2285 158.024 84.958 154.685 84.9756ZM193.972 84H179.021V39.624H193.972V84ZM216.041 54.7324C218.414 51.5684 222.009 49.9863 226.825 49.9863C228.196 49.9863 229.655 50.3027 231.202 50.9355C232.749 51.5684 234.094 52.4824 235.236 53.6777C237.697 56.2266 238.928 59.6016 238.928 63.8027V84H223.16V69.7881C223.16 66.958 222.703 64.6377 221.789 62.8271C220.875 60.999 219.803 60.085 218.572 60.085C216.885 60.085 216.041 61.2363 216.041 63.5391V84H200.379V39.624H216.041V54.7324ZM248.736 81.0996C247.33 79.7812 246.205 78.1289 245.361 76.1426C244.535 74.1387 244.122 71.9854 244.122 69.6826C244.122 67.3799 244.351 65.3848 244.808 63.6973C245.722 60.3398 247.321 57.5186 249.606 55.2334C250.696 54.1084 251.909 53.1592 253.245 52.3857C255.987 50.7861 258.879 49.9863 261.92 49.9863C264.979 49.9863 267.659 50.9971 269.962 53.0186C270.7 53.6689 271.342 54.416 271.887 55.2598L275.657 51.2256H284.306V84H275.657L271.887 78.542C269.004 82.7959 264.636 84.9316 258.782 84.9492C257.165 84.9668 255.434 84.6504 253.588 84C251.76 83.3672 250.143 82.4004 248.736 81.0996ZM270.094 61.166C269.461 60.7969 268.705 60.6123 267.826 60.6123C266.947 60.6123 266.016 60.9287 265.031 61.5615C264.064 62.1768 263.194 62.959 262.421 63.9082C260.698 66.0352 259.837 68.1973 259.837 70.3945C259.837 71.9414 260.312 73.0312 261.261 73.6641C262.14 74.2441 263.476 74.165 265.269 73.4268C267.079 72.6709 268.688 71.6953 270.094 70.5V61.166ZM307.746 81.0996C306.34 79.7812 305.215 78.1289 304.371 76.1426C303.545 74.1387 303.132 71.9854 303.132 69.6826C303.132 67.3799 303.36 65.3848 303.817 63.6973C304.731 60.3398 306.331 57.5186 308.616 55.2334C309.706 54.1084 310.919 53.1592 312.255 52.3857C314.997 50.7861 317.889 49.9863 320.93 49.9863C323.988 49.9863 326.669 50.9971 328.972 53.0186C329.71 53.6689 330.352 54.416 330.896 55.2598L334.667 51.2256H343.315V84H334.667L330.896 78.542C328.014 82.7959 323.646 84.9316 317.792 84.9492C316.175 84.9668 314.443 84.6504 312.598 84C310.77 83.3672 309.152 82.4004 307.746 81.0996ZM329.104 61.166C328.471 60.7969 327.715 60.6123 326.836 60.6123C325.957 60.6123 325.025 60.9287 324.041 61.5615C323.074 62.1768 322.204 62.959 321.431 63.9082C319.708 66.0352 318.847 68.1973 318.847 70.3945C318.847 71.9414 319.321 73.0312 320.271 73.6641C321.149 74.2441 322.485 74.165 324.278 73.4268C326.089 72.6709 327.697 71.6953 329.104 70.5V61.166ZM401.297 63.2227C401.279 68.25 399.618 72.7324 396.313 76.6699C393.853 79.6055 390.504 81.6973 386.268 82.9453C384.07 83.5957 381.574 83.9473 378.779 84V92.543H363.117V51.2256H371.766L375.431 56.2881C379.368 52.0869 383.508 49.9863 387.85 49.9863C392.191 49.9863 395.514 51.2344 397.816 53.7305C400.137 56.2266 401.297 59.3906 401.297 63.2227ZM386.663 61.0869C386.294 60.9463 385.837 60.876 385.292 60.876C384.185 60.876 382.989 61.5176 381.706 62.8008C380.44 64.0664 379.465 65.5166 378.779 67.1514V74.7188C379.078 74.5078 379.518 74.2266 380.098 73.875C380.695 73.5059 381.346 73.0664 382.049 72.5566C386.197 69.6035 388.271 66.5977 388.271 63.5391C388.271 62.3086 387.735 61.4912 386.663 61.0869ZM410.156 81.0996C408.75 79.7812 407.625 78.1289 406.781 76.1426C405.955 74.1387 405.542 71.9854 405.542 69.6826C405.542 67.3799 405.771 65.3848 406.228 63.6973C407.142 60.3398 408.741 57.5186 411.026 55.2334C412.116 54.1084 413.329 53.1592 414.665 52.3857C417.407 50.7861 420.299 49.9863 423.34 49.9863C426.398 49.9863 429.079 50.9971 431.382 53.0186C432.12 53.6689 432.762 54.416 433.307 55.2598L437.077 51.2256H445.726V84H437.077L433.307 78.542C430.424 82.7959 426.056 84.9316 420.202 84.9492C418.585 84.9668 416.854 84.6504 415.008 84C413.18 83.3672 411.562 82.4004 410.156 81.0996ZM431.514 61.166C430.881 60.7969 430.125 60.6123 429.246 60.6123C428.367 60.6123 427.436 60.9287 426.451 61.5615C425.484 62.1768 424.614 62.959 423.841 63.9082C422.118 66.0352 421.257 68.1973 421.257 70.3945C421.257 71.9414 421.731 73.0312 422.681 73.6641C423.56 74.2441 424.896 74.165 426.688 73.4268C428.499 72.6709 430.107 71.6953 431.514 70.5V61.166ZM467.03 84H452.08V39.624H467.03V84ZM477.076 81.0996C475.67 79.7812 474.545 78.1289 473.701 76.1426C472.875 74.1387 472.462 71.9854 472.462 69.6826C472.462 67.3799 472.69 65.3848 473.147 63.6973C474.062 60.3398 475.661 57.5186 477.946 55.2334C479.036 54.1084 480.249 53.1592 481.585 52.3857C484.327 50.7861 487.219 49.9863 490.26 49.9863C493.318 49.9863 495.999 50.9971 498.302 53.0186C499.04 53.6689 499.682 54.416 500.227 55.2598L503.997 51.2256H512.646V84H503.997L500.227 78.542C497.344 82.7959 492.976 84.9316 487.122 84.9492C485.505 84.9668 483.773 84.6504 481.928 84C480.1 83.3672 478.482 82.4004 477.076 81.0996ZM498.434 61.166C497.801 60.7969 497.045 60.6123 496.166 60.6123C495.287 60.6123 494.355 60.9287 493.371 61.5615C492.404 62.1768 491.534 62.959 490.761 63.9082C489.038 66.0352 488.177 68.1973 488.177 70.3945C488.177 71.9414 488.651 73.0312 489.601 73.6641C490.479 74.2441 491.815 74.165 493.608 73.4268C495.419 72.6709 497.027 71.6953 498.434 70.5V61.166ZM536.719 60.876L541.201 51.2256H553.778L537.615 83.9473C537.299 84.6328 536.613 84.9756 535.559 84.9756C534.504 84.9756 533.792 84.6328 533.423 83.9473L516.416 51.2256H531.841L536.719 60.876ZM581.147 63.5918C579.53 63.5918 577.869 64.1807 576.164 65.3584C574.459 66.5361 573.598 67.6523 573.58 68.707V84H557.707V51.2256H573.58V54.7324C574.477 53.3789 575.584 52.2979 576.902 51.4893C578.238 50.6807 579.653 50.1973 581.147 50.0391V63.5918ZM589.453 81.0996C588.047 79.7812 586.922 78.1289 586.078 76.1426C585.252 74.1387 584.839 71.9854 584.839 69.6826C584.839 67.3799 585.067 65.3848 585.524 63.6973C586.438 60.3398 588.038 57.5186 590.323 55.2334C591.413 54.1084 592.626 53.1592 593.962 52.3857C596.704 50.7861 599.596 49.9863 602.637 49.9863C605.695 49.9863 608.376 50.9971 610.679 53.0186C611.417 53.6689 612.059 54.416 612.604 55.2598L616.374 51.2256H625.022V84H616.374L612.604 78.542C609.721 82.7959 605.353 84.9316 599.499 84.9492C597.882 84.9668 596.15 84.6504 594.305 84C592.477 83.3672 590.859 82.4004 589.453 81.0996ZM610.811 61.166C610.178 60.7969 609.422 60.6123 608.543 60.6123C607.664 60.6123 606.732 60.9287 605.748 61.5615C604.781 62.1768 603.911 62.959 603.138 63.9082C601.415 66.0352 600.554 68.1973 600.554 70.3945C600.554 71.9414 601.028 73.0312 601.978 73.6641C602.856 74.2441 604.192 74.165 605.985 73.4268C607.796 72.6709 609.404 71.6953 610.811 70.5V61.166Z" fill="white"/>
<path d="M35.1094 41.8916V33.8916H27.1094V41.8916H35.1094ZM65.458 41.8916H73.458V33.8916H65.458V41.8916ZM65.458 54.0205V62.0205H73.458V54.0205H65.458ZM51.5098 54.0205V46.0205H43.5098V54.0205H51.5098ZM51.5098 57.4746H43.5098V65.4746H51.5098V57.4746ZM65.4053 57.4746H73.4053V49.4746H65.4053V57.4746ZM65.4053 67.8105V75.8105H73.4053V67.8105H65.4053ZM51.5098 67.8105V59.8105H43.5098V67.8105H51.5098ZM51.5098 71.792H43.5098V79.792H51.5098V71.792ZM66.3809 71.792H74.3809V63.792H66.3809V71.792ZM66.3809 84V92H74.3809V84H66.3809ZM35.1094 84H27.1094V92H35.1094V84ZM35.1094 49.8916H65.458V33.8916H35.1094V49.8916ZM57.458 41.8916V54.0205H73.458V41.8916H57.458ZM65.458 46.0205H51.5098V62.0205H65.458V46.0205ZM43.5098 54.0205V57.4746H59.5098V54.0205H43.5098ZM51.5098 65.4746H65.4053V49.4746H51.5098V65.4746ZM57.4053 57.4746V67.8105H73.4053V57.4746H57.4053ZM65.4053 59.8105H51.5098V75.8105H65.4053V59.8105ZM43.5098 67.8105V71.792H59.5098V67.8105H43.5098ZM51.5098 79.792H66.3809V63.792H51.5098V79.792ZM58.3809 71.792V84H74.3809V71.792H58.3809ZM66.3809 76H35.1094V92H66.3809V76ZM43.1094 84V41.8916H27.1094V84H43.1094ZM96.835 61.0605L95.0105 68.8497L104.835 71.151V61.0605H96.835ZM87.1318 60.0322L82.0871 53.8233L81.9884 53.9035L81.8924 53.9867L87.1318 60.0322ZM88.8984 62.5635L85.8343 69.9534L85.8884 69.9758L85.9428 69.9975L88.8984 62.5635ZM96.0439 66.334L101.479 60.4639L101.47 60.4552L101.46 60.4465L96.0439 66.334ZM74.6338 83.7891L76.9902 76.144L76.9504 76.1317L76.9106 76.1199L74.6338 83.7891ZM72.0498 82.6025H64.0498V86.5559L67.1902 88.9574L72.0498 82.6025ZM72.0498 72.8203L72.6198 64.8406L64.0498 64.2285V72.8203H72.0498ZM76.4004 74.165L73.9554 81.7822L73.9981 81.796L74.0411 81.8092L76.4004 74.165ZM80.4609 71.5811L84.5769 64.7211L84.5582 64.7099L84.5394 64.6987L80.4609 71.5811ZM78.8525 70.7109L82.4302 63.5555L82.3997 63.5402L82.369 63.5252L78.8525 70.7109ZM73.5264 66.5186L66.8475 70.9222L66.8755 70.9648L66.9041 71.007L73.5264 66.5186ZM76.585 52.3594L80.7408 59.1952L80.7416 59.1947L76.585 52.3594ZM95.6221 50.8564L94.0801 58.7064L94.0876 58.7079L94.0951 58.7094L95.6221 50.8564ZM96.835 51.1201H104.835V45.1679L99.1337 43.4575L96.835 51.1201ZM98.6595 53.2714C94.7148 52.3474 91.0942 51.6895 88.3184 51.6895V67.6895C89.0933 67.6895 91.1504 67.9456 95.0105 68.8497L98.6595 53.2714ZM88.3184 51.6895C86.7064 51.6895 84.2761 52.0448 82.0871 53.8233L92.1766 66.2411C90.5501 67.5626 88.9108 67.6895 88.3184 67.6895V51.6895ZM81.8924 53.9867C80.3327 55.3385 78.7363 57.652 78.7363 60.7969H94.7363C94.7363 61.962 94.4502 63.0855 93.9409 64.0702C93.4519 65.0156 92.8452 65.667 92.3713 66.0777L81.8924 53.9867ZM78.7363 60.7969C78.7363 64.6304 81.1111 66.9666 82.2151 67.8686C83.4504 68.878 84.8097 69.5286 85.8343 69.9534L91.9626 55.1735C91.5457 55.0007 91.824 55.058 92.3386 55.4786C92.7219 55.7917 94.7363 57.5434 94.7363 60.7969H78.7363ZM85.9428 69.9975C87.2865 70.5317 88.4834 71.0446 89.5405 71.5348L96.272 57.0198C94.9033 56.3851 93.4283 55.7554 91.8541 55.1295L85.9428 69.9975ZM89.5405 71.5348C90.0916 71.7905 90.4251 72.0352 90.6275 72.2214L101.46 60.4465C99.905 59.0155 98.1466 57.8892 96.272 57.0198L89.5405 71.5348ZM90.6087 72.2041C90.5509 72.1506 90.5843 72.1381 90.6584 72.3425C90.7484 72.591 90.8916 73.1582 90.8916 74.1914H106.892C106.892 69.2845 105.521 64.2061 101.479 60.4639L90.6087 72.2041ZM90.8916 74.1914C90.8916 74.9483 90.7576 75.2795 90.7142 75.3715C90.6838 75.436 90.623 75.5567 90.3571 75.7538L99.8851 88.6075C104.673 85.0586 106.892 79.8759 106.892 74.1914H90.8916ZM90.3571 75.7538C89.6507 76.2774 88.1151 76.9756 84.917 76.9756V92.9756C90.297 92.9756 95.5641 91.8105 99.8851 88.6075L90.3571 75.7538ZM84.917 76.9756C81.0105 76.9756 78.4775 76.6024 76.9902 76.144L72.2774 91.4342C75.9229 92.5578 80.2454 92.9756 84.917 92.9756V76.9756ZM76.9106 76.1199C76.7741 76.0794 76.671 76.0445 76.5974 76.0175C76.5234 75.9903 76.4871 75.9739 76.4824 75.9718C76.4773 75.9694 76.5142 75.986 76.5836 76.0266C76.6527 76.067 76.7664 76.1383 76.9094 76.2477L67.1902 88.9574C68.8704 90.2423 70.7624 90.9848 72.357 91.4582L76.9106 76.1199ZM80.0498 82.6025V72.8203H64.0498V82.6025H80.0498ZM71.4798 80.8C71.121 80.7743 70.8576 80.7271 70.7393 80.704C70.6068 80.6782 70.5239 80.6565 70.5059 80.6517C70.4762 80.6438 70.5454 80.6615 70.7472 80.7307L75.9364 65.5955C75.3959 65.4102 74.0423 64.9422 72.6198 64.8406L71.4798 80.8ZM70.7472 80.7307C71.4436 80.9694 72.5287 81.3243 73.9554 81.7822L78.8454 66.5478C77.4245 66.0917 76.4705 65.7786 75.9364 65.5955L70.7472 80.7307ZM74.0411 81.8092C76.0236 82.4211 78.1265 82.8242 80.2764 82.8242V66.8242C80.1059 66.8242 79.6248 66.7879 78.7597 66.5209L74.0411 81.8092ZM80.2764 82.8242C81.6037 82.8242 84.047 82.6238 86.3239 80.9586C89.067 78.9524 90.043 75.9916 90.043 73.5322H74.043C74.043 72.8421 74.1617 71.8575 74.653 70.7796C75.1646 69.6571 75.9505 68.7228 76.8788 68.0439C78.5668 66.8093 80.1268 66.8242 80.2764 66.8242V82.8242ZM90.043 73.5322C90.043 68.3254 86.0478 65.6036 84.5769 64.7211L76.345 78.441C76.3445 78.4407 76.3237 78.4282 76.2862 78.4024C76.2489 78.3766 76.1895 78.3337 76.1135 78.2721C75.9691 78.1549 75.7167 77.9313 75.4334 77.5819C74.8416 76.852 74.043 75.4584 74.043 73.5322H90.043ZM84.5394 64.6987C83.8714 64.3029 83.1639 63.9224 82.4302 63.5555L75.2748 77.8664C75.7365 78.0972 76.1013 78.2967 76.3825 78.4634L84.5394 64.6987ZM82.369 63.5252C81.5303 63.1148 80.969 62.7494 80.6102 62.4669C80.2551 62.1875 80.1473 62.0282 80.1486 62.0301L66.9041 71.007C69.0306 74.1444 72.1268 76.3261 75.3361 77.8967L82.369 63.5252ZM80.2053 62.1149C80.1129 61.9748 79.9443 61.6746 79.9443 60.9023H63.9443C63.9443 64.4191 64.8304 67.8631 66.8475 70.9222L80.2053 62.1149ZM79.9443 60.9023C79.9443 60.0924 80.1017 59.7845 80.1343 59.7244C80.1565 59.6835 80.2567 59.4895 80.7408 59.1952L72.4291 45.5235C66.7971 48.9475 63.9443 54.4761 63.9443 60.9023H79.9443ZM80.7416 59.1947C81.7014 58.6111 83.5197 57.9863 86.7891 57.9863V41.9863C81.6561 41.9863 76.6716 42.9436 72.4283 45.524L80.7416 59.1947ZM86.7891 57.9863C89.1941 57.9863 91.6221 58.2236 94.0801 58.7064L97.164 43.0065C93.7158 42.3291 90.2551 41.9863 86.7891 41.9863V57.9863ZM94.0951 58.7094C94.3818 58.7651 94.578 58.8054 94.7005 58.8321C94.7613 58.8453 94.7829 58.8506 94.7755 58.8488C94.7707 58.8476 94.7494 58.8424 94.7152 58.8334C94.6834 58.825 94.6204 58.808 94.5362 58.7827L99.1337 43.4575C98.4996 43.2673 97.671 43.105 97.149 43.0035L94.0951 58.7094ZM88.835 51.1201V61.0605H104.835V51.1201H88.835ZM123.202 74.0068L122.803 81.9969L123.002 82.0068H123.202V74.0068ZM130.901 70.2363H138.901V54.2531L126.107 63.8323L130.901 70.2363ZM130.901 83.1299L133.73 90.613L138.901 88.6581V83.1299H130.901ZM104.587 75.668L97.4315 79.2457L97.4408 79.2644L97.4503 79.283L104.587 75.668ZM130.374 51.0674H138.374V45.5177L133.176 43.5741L130.374 51.0674ZM130.374 61.2188L125.186 67.3087L138.374 78.5427V61.2188H130.374ZM122.912 63.6182L116.92 58.3176L116.916 58.3219L122.912 63.6182ZM120.117 70.1309H112.117V70.1626L112.117 70.1943L120.117 70.1309ZM122.147 73.875L120.499 81.7034L120.539 81.7117L120.579 81.7196L122.147 73.875ZM123.202 82.0068C125.832 82.0068 128.192 81.1231 129.977 80.2489C131.864 79.3248 133.784 78.0716 135.696 76.6403L126.107 63.8323C124.661 64.9147 123.619 65.5468 122.94 65.8795C122.611 66.0406 122.457 66.0869 122.458 66.0867C122.463 66.085 122.528 66.0664 122.647 66.0475C122.766 66.0286 122.954 66.0068 123.202 66.0068V82.0068ZM122.901 70.2363V83.1299H138.901V70.2363H122.901ZM128.072 75.6468C123.64 77.3223 120.209 77.3399 117.396 76.4362L112.502 91.6692C119.428 93.8945 126.631 93.2968 133.73 90.613L128.072 75.6468ZM117.396 76.4362C114.266 75.4304 112.665 73.9109 111.724 72.0529L97.4503 79.283C100.587 85.4758 105.894 89.5461 112.502 91.6692L117.396 76.4362ZM111.742 72.0903C111.38 71.3653 111.058 70.2455 111.058 68.4961H95.0576C95.0576 72.2311 95.7549 75.8925 97.4315 79.2457L111.742 72.0903ZM111.058 68.4961C111.058 65.0392 112.141 62.7946 114.114 61.0133L103.392 49.1371C97.7714 54.2113 95.0576 60.9139 95.0576 68.4961H111.058ZM114.114 61.0133C116.171 59.156 119.074 57.9336 123.571 57.9336V41.9336C115.904 41.9336 108.928 44.1389 103.392 49.1371L114.114 61.0133ZM123.571 57.9336C125.283 57.9336 126.581 58.1902 127.572 58.5607L133.176 43.5741C130.124 42.4329 126.887 41.9336 123.571 41.9336V57.9336ZM122.374 51.0674V61.2188H138.374V51.0674H122.374ZM135.562 55.1288C133.171 53.0923 130.41 52.6123 128.37 52.6123V68.6123C128.053 68.6123 126.628 68.5366 125.186 67.3087L135.562 55.1288ZM128.37 52.6123C125.801 52.6123 123.545 53.4242 121.727 54.4305L129.476 68.4288C129.627 68.3453 129.217 68.6123 128.37 68.6123V52.6123ZM121.727 54.4305C119.88 55.4528 118.281 56.7787 116.92 58.3176L128.904 68.9188C129.16 68.6295 129.354 68.4964 129.476 68.4288L121.727 54.4305ZM116.916 58.3219C114.11 61.4991 112.117 65.4791 112.117 70.1309H128.117C128.117 70.1306 128.117 70.1315 128.117 70.1324C128.117 70.1333 128.117 70.1309 128.119 70.124C128.121 70.1125 128.132 70.0671 128.168 69.9833C128.241 69.8122 128.435 69.4503 128.908 68.9144L116.916 58.3219ZM112.117 70.1943C112.131 71.9475 112.388 74.2965 113.605 76.5415C115.011 79.1345 117.431 81.0575 120.499 81.7034L123.796 66.0466C124.526 66.2004 125.344 66.5315 126.109 67.113C126.867 67.6888 127.365 68.3519 127.671 68.9146C128.211 69.9116 128.121 70.529 128.117 70.0674L112.117 70.1943ZM120.579 81.7196C121.309 81.8657 122.051 81.9593 122.803 81.9969L123.602 66.0168C123.65 66.0192 123.689 66.025 123.716 66.0304L120.579 81.7196ZM156.609 60.7969L160.034 68.0268L160.111 67.9903L160.187 67.9523L156.609 60.7969ZM154.632 62.1152L149.399 56.0643L149.387 56.0747L149.375 56.0851L154.632 62.1152ZM151.415 74.0596L154.725 66.7766L154.717 66.7726L154.708 66.7686L151.415 74.0596ZM154.605 73.8223L158.422 80.8531L158.499 80.8115L158.575 80.7682L154.605 73.8223ZM156.451 72.4248L161.939 78.2455L161.946 78.2387L156.451 72.4248ZM159.826 68.0215L166.803 71.9368L166.811 71.9217L166.819 71.9066L159.826 68.0215ZM154.685 84.9756V92.9756H154.706L154.727 92.9755L154.685 84.9756ZM141.686 80.2031L146.952 74.1807L146.942 74.1723L146.932 74.1639L141.686 80.2031ZM141.316 54.8906L146.647 60.8556L146.655 60.8484L146.663 60.8413L141.316 54.8906ZM168.264 54.7852L162.981 60.7932L162.989 60.8004L162.998 60.8076L168.264 54.7852ZM173.748 67.5732L165.748 67.5996L165.748 67.6069L165.748 67.6143L173.748 67.5732ZM163.378 53.4042C161.541 52.4861 159.734 52.2959 158.429 52.2959V68.2959C158.248 68.2959 157.355 68.2815 156.222 67.715L163.378 53.4042ZM158.429 52.2959C156.269 52.2959 154.421 52.9469 153.032 53.6415L160.187 67.9523C160.134 67.9789 159.498 68.2959 158.429 68.2959V52.2959ZM153.185 53.567C151.767 54.2385 150.509 55.1041 149.399 56.0643L159.865 68.1661C160.056 68.0014 160.116 67.9881 160.034 68.0268L153.185 53.567ZM149.375 56.0851C147.243 57.9431 145.511 60.1519 144.157 62.6299L158.198 70.3017C158.707 69.3696 159.278 68.678 159.889 68.1454L149.375 56.0851ZM144.157 62.6299C142.797 65.1189 141.78 68.0181 141.78 71.1855H157.78C157.78 71.4702 157.695 71.2229 158.198 70.3017L144.157 62.6299ZM141.78 71.1855C141.78 72.8892 142.105 74.9405 143.235 76.9273C144.417 79.0042 146.173 80.4704 148.122 81.3505L154.708 66.7686C155.567 67.1566 156.506 67.8977 157.143 69.0166C157.728 70.0454 157.78 70.9057 157.78 71.1855H141.78ZM148.105 81.3425C149.81 82.1177 151.487 82.3232 152.839 82.3232V66.3232C153.066 66.3232 153.793 66.353 154.725 66.7766L148.105 81.3425ZM152.839 82.3232C155.022 82.3232 156.917 81.67 158.422 80.8531L150.789 66.7914C151.063 66.6425 151.78 66.3232 152.839 66.3232V82.3232ZM158.575 80.7682C159.832 80.0495 160.95 79.1787 161.939 78.2455L150.963 66.6041C150.722 66.8311 150.609 66.8919 150.636 66.8763L158.575 80.7682ZM161.946 78.2387C163.881 76.4098 165.487 74.2809 166.803 71.9368L152.85 64.1062C152.232 65.2074 151.587 66.014 150.956 66.6109L161.946 78.2387ZM166.819 71.9066C168.168 69.4798 169.276 66.5624 169.276 63.3545H153.276C153.276 63.1004 153.321 63.0263 153.274 63.1757C153.227 63.3285 153.106 63.6449 152.833 64.1363L166.819 71.9066ZM169.276 63.3545C169.276 59.8458 167.788 55.6093 163.378 53.4042L156.222 67.715C155.292 67.2497 154.404 66.4434 153.834 65.3644C153.316 64.384 153.276 63.5916 153.276 63.3545H169.276ZM154.685 76.9756C151.509 76.9756 149.069 76.0326 146.952 74.1807L136.42 86.2255C141.579 90.7369 147.805 92.9756 154.685 92.9756V76.9756ZM146.932 74.1639C144.784 72.2978 143.858 70.2502 143.858 67.4678H127.858C127.858 74.9158 130.817 81.3584 136.439 86.2423L146.932 74.1639ZM143.858 67.4678C143.858 64.4789 144.804 62.503 146.647 60.8556L135.985 48.9257C130.551 53.7822 127.858 60.191 127.858 67.4678H143.858ZM146.663 60.8413C148.693 59.0175 151.223 57.9863 154.79 57.9863V41.9863C147.67 41.9863 141.217 44.2247 135.969 48.94L146.663 60.8413ZM154.79 57.9863C158.405 57.9863 160.957 59.0133 162.981 60.7932L173.546 48.7771C168.293 44.1586 161.863 41.9863 154.79 41.9863V57.9863ZM162.998 60.8076C164.711 62.3059 165.737 64.2826 165.748 67.5996L181.748 67.5469C181.724 60.1764 179.093 53.6277 173.53 48.7627L162.998 60.8076ZM165.748 67.6143C165.758 69.585 165.283 71.0305 164.481 72.2323L177.794 81.1075C180.508 77.036 181.773 72.417 181.748 67.5322L165.748 67.6143ZM164.481 72.2323C163.532 73.6557 162.282 74.7661 160.572 75.6061L167.624 89.9681C171.784 87.9253 175.227 84.9576 177.794 81.1075L164.481 72.2323ZM160.572 75.6061C158.744 76.5034 156.801 76.9643 154.642 76.9757L154.727 92.9755C159.248 92.9517 163.58 91.9537 167.624 89.9681L160.572 75.6061ZM193.972 84V92H201.972V84H193.972ZM179.021 84H171.021V92H179.021V84ZM179.021 39.624V31.624H171.021V39.624H179.021ZM193.972 39.624H201.972V31.624H193.972V39.624ZM193.972 76H179.021V92H193.972V76ZM187.021 84V39.624H171.021V84H187.021ZM179.021 47.624H193.972V31.624H179.021V47.624ZM185.972 39.624V84H201.972V39.624H185.972ZM216.041 54.7324H208.041V78.7324L222.441 59.5324L216.041 54.7324ZM235.236 53.6777L229.453 59.2056L229.467 59.2201L229.481 59.2345L235.236 53.6777ZM238.928 84V92H246.928V84H238.928ZM223.16 84H215.16V92H223.16V84ZM221.789 62.8271L214.634 66.4049L214.641 66.4187L214.648 66.4326L221.789 62.8271ZM216.041 84V92H224.041V84H216.041ZM200.379 84H192.379V92H200.379V84ZM200.379 39.624V31.624H192.379V39.624H200.379ZM216.041 39.624H224.041V31.624H216.041V39.624ZM222.441 59.5324C222.97 58.8277 223.913 57.9863 226.825 57.9863V41.9863C220.104 41.9863 213.859 44.309 209.641 49.9324L222.441 59.5324ZM226.825 57.9863C226.957 57.9863 227.383 58.0166 228.173 58.3399L234.231 43.5312C231.928 42.5888 229.436 41.9863 226.825 41.9863V57.9863ZM228.173 58.3399C228.692 58.5522 229.095 58.8311 229.453 59.2056L241.019 48.1499C239.092 46.1337 236.806 44.5845 234.231 43.5312L228.173 58.3399ZM229.481 59.2345C230.24 60.02 230.928 61.2632 230.928 63.8027H246.928C246.928 57.9399 245.155 52.4332 240.992 48.121L229.481 59.2345ZM230.928 63.8027V84H246.928V63.8027H230.928ZM238.928 76H223.16V92H238.928V76ZM231.16 84V69.7881H215.16V84H231.16ZM231.16 69.7881C231.16 66.1717 230.587 62.503 228.931 59.2217L214.648 66.4326C214.819 66.7724 215.16 67.7443 215.16 69.7881H231.16ZM228.944 59.2494C227.631 56.6233 224.501 52.085 218.572 52.085V68.085C217.012 68.085 215.798 67.4457 215.109 66.8586C214.548 66.3796 214.458 66.0538 214.634 66.4049L228.944 59.2494ZM218.572 52.085C215.706 52.085 212.436 53.1969 210.221 56.2197C208.346 58.7789 208.041 61.6468 208.041 63.5391H224.041C224.041 63.1285 224.158 64.2694 223.127 65.6773C222.549 66.4649 221.743 67.1434 220.777 67.5829C219.856 68.0021 219.054 68.085 218.572 68.085V52.085ZM208.041 63.5391V84H224.041V63.5391H208.041ZM216.041 76H200.379V92H216.041V76ZM208.379 84V39.624H192.379V84H208.379ZM200.379 47.624H216.041V31.624H200.379V47.624ZM208.041 39.624V54.7324H224.041V39.624H208.041ZM248.736 81.0996L243.265 86.9359L243.284 86.9542L243.304 86.9724L248.736 81.0996ZM245.361 76.1426L237.965 79.1918L237.981 79.2312L237.998 79.2703L245.361 76.1426ZM244.808 63.6973L237.089 61.5957L237.086 61.6059L244.808 63.6973ZM249.606 55.2334L255.263 60.8903L255.308 60.8454L255.352 60.7998L249.606 55.2334ZM253.245 52.3857L257.253 59.3092L257.265 59.3026L257.276 59.296L253.245 52.3857ZM269.962 53.0186L275.25 47.0157L275.24 47.0065L269.962 53.0186ZM271.887 55.2598L265.166 59.6L270.73 68.2138L277.731 60.7224L271.887 55.2598ZM275.657 51.2256V43.2256H272.184L269.813 45.763L275.657 51.2256ZM284.306 51.2256H292.306V43.2256H284.306V51.2256ZM284.306 84V92H292.306V84H284.306ZM275.657 84L269.075 88.5471L271.46 92H275.657V84ZM271.887 78.542L278.469 73.9949L271.823 64.3752L265.264 74.054L271.887 78.542ZM258.782 84.9492L258.758 76.9493L258.727 76.9493L258.695 76.9497L258.782 84.9492ZM253.588 84L256.247 76.4548L256.226 76.4474L256.205 76.4401L253.588 84ZM270.094 61.166H278.094V56.5711L274.125 54.2558L270.094 61.166ZM265.031 61.5615L269.326 68.3108L269.342 68.3009L269.357 68.291L265.031 61.5615ZM262.421 63.9082L256.219 58.8548L256.212 58.864L256.204 58.8731L262.421 63.9082ZM261.261 73.6641L256.823 80.3205L256.839 80.3307L256.854 80.3409L261.261 73.6641ZM265.269 73.4268L268.315 80.8242L268.333 80.8168L268.351 80.8093L265.269 73.4268ZM270.094 70.5L275.275 76.5955L278.094 74.1995V70.5H270.094ZM254.208 75.2633C253.706 74.7926 253.185 74.0994 252.725 73.0148L237.998 79.2703C239.225 82.1585 240.954 84.7699 243.265 86.9359L254.208 75.2633ZM252.757 73.0933C252.354 72.1159 252.122 71.0053 252.122 69.6826H236.122C236.122 72.9654 236.716 76.1615 237.965 79.1918L252.757 73.0933ZM252.122 69.6826C252.122 67.8769 252.305 66.6182 252.529 65.7886L237.086 61.6059C236.396 64.1513 236.122 66.8828 236.122 69.6826H252.122ZM252.527 65.7988C253.104 63.6793 254.039 62.1149 255.263 60.8903L243.95 49.5765C240.604 52.9222 238.34 57.0003 237.089 61.5957L252.527 65.7988ZM255.352 60.7998C255.936 60.1973 256.566 59.7072 257.253 59.3092L249.237 45.4623C247.252 46.6112 245.457 48.0195 243.861 49.667L255.352 60.7998ZM257.276 59.296C258.851 58.3774 260.359 57.9863 261.92 57.9863V41.9863C257.399 41.9863 253.124 43.1949 249.214 45.4755L257.276 59.296ZM261.92 57.9863C263.032 57.9863 263.838 58.2879 264.684 59.0306L275.24 47.0065C271.48 43.7062 266.925 41.9863 261.92 41.9863V57.9863ZM264.674 59.0214C264.849 59.1759 265.012 59.3606 265.166 59.6L278.607 50.9196C277.672 49.4714 276.551 48.162 275.25 47.0157L264.674 59.0214ZM277.731 60.7224L281.502 56.6882L269.813 45.763L266.042 49.7971L277.731 60.7224ZM275.657 59.2256H284.306V43.2256H275.657V59.2256ZM276.306 51.2256V84H292.306V51.2256H276.306ZM284.306 76H275.657V92H284.306V76ZM282.239 79.4529L278.469 73.9949L265.305 83.0891L269.075 88.5471L282.239 79.4529ZM265.264 74.054C264.09 75.7867 262.395 76.9383 258.758 76.9493L258.806 92.9492C266.877 92.9249 273.918 89.8051 278.509 83.03L265.264 74.054ZM258.695 76.9497C258.186 76.9552 257.39 76.8577 256.247 76.4548L250.929 91.5452C253.477 92.443 256.144 92.9784 258.869 92.9487L258.695 76.9497ZM256.205 76.4401C255.411 76.1653 254.755 75.7691 254.169 75.2268L243.304 86.9724C245.53 89.0317 248.109 90.569 250.971 91.5599L256.205 76.4401ZM274.125 54.2558C272.045 53.0425 269.838 52.6123 267.826 52.6123V68.6123C267.572 68.6123 266.877 68.5512 266.063 68.0762L274.125 54.2558ZM267.826 52.6123C264.982 52.6123 262.562 53.6384 260.705 54.8321L269.357 68.291C269.469 68.219 268.912 68.6123 267.826 68.6123V52.6123ZM260.736 54.8122C258.999 55.9176 257.496 57.2875 256.219 58.8548L268.623 68.9616C268.893 68.6305 269.13 68.4359 269.326 68.3108L260.736 54.8122ZM256.204 58.8731C253.619 62.0655 251.837 65.95 251.837 70.3945H267.837C267.837 70.3689 267.837 70.2812 267.915 70.0857C268 69.8716 268.197 69.4877 268.638 68.9433L256.204 58.8731ZM251.837 70.3945C251.837 73.5677 252.898 77.7039 256.823 80.3205L265.698 67.0077C266.557 67.5802 267.179 68.3768 267.528 69.1779C267.84 69.8952 267.837 70.3853 267.837 70.3945H251.837ZM256.854 80.3409C261.275 83.259 266.054 81.7548 268.315 80.8242L262.223 66.0293C261.811 66.1989 261.932 66.0844 262.449 66.0538C263.035 66.0191 264.315 66.0943 265.667 66.9872L256.854 80.3409ZM268.351 80.8093C270.875 79.7554 273.201 78.3583 275.275 76.5955L264.913 64.4045C264.174 65.0323 263.283 65.5864 262.187 66.0443L268.351 80.8093ZM278.094 70.5V61.166H262.094V70.5H278.094ZM307.746 81.0996L302.275 86.9359L302.294 86.9542L302.314 86.9724L307.746 81.0996ZM304.371 76.1426L296.975 79.1918L296.991 79.2312L297.008 79.2703L304.371 76.1426ZM303.817 63.6973L296.098 61.5957L296.096 61.6059L303.817 63.6973ZM308.616 55.2334L314.273 60.8903L314.318 60.8454L314.362 60.7998L308.616 55.2334ZM312.255 52.3857L316.263 59.3092L316.275 59.3026L316.286 59.296L312.255 52.3857ZM328.972 53.0186L334.26 47.0157L334.249 47.0065L328.972 53.0186ZM330.896 55.2598L324.176 59.6L329.739 68.2138L336.741 60.7224L330.896 55.2598ZM334.667 51.2256V43.2256H331.194L328.822 45.763L334.667 51.2256ZM343.315 51.2256H351.315V43.2256H343.315V51.2256ZM343.315 84V92H351.315V84H343.315ZM334.667 84L328.085 88.5471L330.47 92H334.667V84ZM330.896 78.542L337.479 73.9949L330.833 64.3752L324.274 74.054L330.896 78.542ZM317.792 84.9492L317.768 76.9493L317.737 76.9493L317.705 76.9497L317.792 84.9492ZM312.598 84L315.256 76.4548L315.236 76.4474L315.215 76.4401L312.598 84ZM329.104 61.166H337.104V56.5711L333.134 54.2558L329.104 61.166ZM324.041 61.5615L328.336 68.3108L328.352 68.3009L328.367 68.291L324.041 61.5615ZM321.431 63.9082L315.229 58.8548L315.221 58.864L315.214 58.8731L321.431 63.9082ZM320.271 73.6641L315.833 80.3205L315.848 80.3307L315.864 80.3409L320.271 73.6641ZM324.278 73.4268L327.324 80.8242L327.342 80.8168L327.36 80.8093L324.278 73.4268ZM329.104 70.5L334.285 76.5955L337.104 74.1995V70.5H329.104ZM313.218 75.2633C312.716 74.7926 312.195 74.0994 311.734 73.0148L297.008 79.2703C298.235 82.1585 299.964 84.7699 302.275 86.9359L313.218 75.2633ZM311.767 73.0933C311.364 72.1159 311.132 71.0053 311.132 69.6826H295.132C295.132 72.9654 295.726 76.1615 296.975 79.1918L311.767 73.0933ZM311.132 69.6826C311.132 67.8769 311.315 66.6182 311.539 65.7886L296.096 61.6059C295.406 64.1513 295.132 66.8828 295.132 69.6826H311.132ZM311.536 65.7988C312.113 63.6793 313.048 62.1149 314.273 60.8903L302.959 49.5765C299.614 52.9222 297.349 57.0003 296.098 61.5957L311.536 65.7988ZM314.362 60.7998C314.946 60.1973 315.576 59.7072 316.263 59.3092L308.247 45.4623C306.262 46.6112 304.466 48.0195 302.87 49.667L314.362 60.7998ZM316.286 59.296C317.861 58.3774 319.369 57.9863 320.93 57.9863V41.9863C316.409 41.9863 312.134 43.1949 308.224 45.4755L316.286 59.296ZM320.93 57.9863C322.042 57.9863 322.848 58.2879 323.694 59.0306L334.249 47.0065C330.49 43.7062 325.934 41.9863 320.93 41.9863V57.9863ZM323.683 59.0214C323.859 59.1759 324.022 59.3606 324.176 59.6L337.617 50.9196C336.682 49.4714 335.561 48.162 334.26 47.0157L323.683 59.0214ZM336.741 60.7224L340.512 56.6882L328.822 45.763L325.052 49.7971L336.741 60.7224ZM334.667 59.2256H343.315V43.2256H334.667V59.2256ZM335.315 51.2256V84H351.315V51.2256H335.315ZM343.315 76H334.667V92H343.315V76ZM341.249 79.4529L337.479 73.9949L324.314 83.0891L328.085 88.5471L341.249 79.4529ZM324.274 74.054C323.1 75.7867 321.404 76.9383 317.768 76.9493L317.816 92.9492C325.887 92.9249 332.928 89.8051 337.519 83.03L324.274 74.054ZM317.705 76.9497C317.196 76.9552 316.4 76.8577 315.256 76.4548L309.939 91.5452C312.487 92.443 315.154 92.9784 317.879 92.9487L317.705 76.9497ZM315.215 76.4401C314.421 76.1653 313.765 75.7691 313.178 75.2268L302.314 86.9724C304.54 89.0317 307.118 90.569 309.981 91.5599L315.215 76.4401ZM333.134 54.2558C331.055 53.0425 328.848 52.6123 326.836 52.6123V68.6123C326.582 68.6123 325.887 68.5512 325.073 68.0762L333.134 54.2558ZM326.836 52.6123C323.992 52.6123 321.572 53.6384 319.715 54.8321L328.367 68.291C328.479 68.219 327.922 68.6123 326.836 68.6123V52.6123ZM319.746 54.8122C318.009 55.9176 316.506 57.2875 315.229 58.8548L327.633 68.9616C327.902 68.6305 328.139 68.4359 328.336 68.3108L319.746 54.8122ZM315.214 58.8731C312.628 62.0655 310.847 65.95 310.847 70.3945H326.847C326.847 70.3689 326.847 70.2812 326.925 70.0857C327.01 69.8716 327.206 69.4877 327.647 68.9433L315.214 58.8731ZM310.847 70.3945C310.847 73.5677 311.908 77.7039 315.833 80.3205L324.708 67.0077C325.567 67.5802 326.188 68.3768 326.537 69.1779C326.85 69.8952 326.847 70.3853 326.847 70.3945H310.847ZM315.864 80.3409C320.285 83.259 325.064 81.7548 327.324 80.8242L321.232 66.0293C320.82 66.1989 320.942 66.0844 321.459 66.0538C322.044 66.0191 323.324 66.0943 324.677 66.9872L315.864 80.3409ZM327.36 80.8093C329.885 79.7554 332.211 78.3583 334.285 76.5955L323.922 64.4045C323.184 65.0323 322.293 65.5864 321.196 66.0443L327.36 80.8093ZM337.104 70.5V61.166H321.104V70.5H337.104ZM401.297 63.2227L409.297 63.2506L409.297 63.2366V63.2227H401.297ZM396.313 76.6699L390.186 71.527L390.183 71.5304L396.313 76.6699ZM386.268 82.9453L384.007 75.2714L383.997 75.2743L386.268 82.9453ZM378.779 84L378.628 76.0014L370.779 76.1495V84H378.779ZM378.779 92.543V100.543H386.779V92.543H378.779ZM363.117 92.543H355.117V100.543H363.117V92.543ZM363.117 51.2256V43.2256H355.117V51.2256H363.117ZM371.766 51.2256L378.246 46.5343L375.85 43.2256H371.766V51.2256ZM375.431 56.2881L368.951 60.9794L374.637 68.8338L381.268 61.7588L375.431 56.2881ZM397.816 53.7305L391.936 59.155L391.947 59.1661L391.957 59.1772L397.816 53.7305ZM386.663 61.0869L383.815 68.5628L383.828 68.5677L383.841 68.5725L386.663 61.0869ZM378.779 67.1514L371.402 64.0576L370.779 65.5418V67.1514H378.779ZM378.779 74.7188H370.779V90.1581L383.393 81.2545L378.779 74.7188ZM380.098 73.875L384.244 80.7166L384.273 80.6991L384.302 80.6814L380.098 73.875ZM382.049 72.5566L377.409 66.0393L377.381 66.0594L377.353 66.0798L382.049 72.5566ZM393.297 63.1947C393.286 66.3051 392.317 68.9878 390.186 71.527L402.441 81.8129C406.92 76.4771 409.273 70.1949 409.297 63.2506L393.297 63.1947ZM390.183 71.5304C388.882 73.0819 386.969 74.3987 384.007 75.2714L388.528 90.6192C394.039 88.9958 398.823 86.1291 402.444 81.8094L390.183 71.5304ZM383.997 75.2743C382.62 75.6819 380.857 75.9594 378.628 76.0014L378.93 91.9986C382.292 91.9351 385.521 91.5095 388.538 90.6163L383.997 75.2743ZM370.779 84V92.543H386.779V84H370.779ZM378.779 84.543H363.117V100.543H378.779V84.543ZM371.117 92.543V51.2256H355.117V92.543H371.117ZM363.117 59.2256H371.766V43.2256H363.117V59.2256ZM365.286 55.9169L368.951 60.9794L381.911 51.5968L378.246 46.5343L365.286 55.9169ZM381.268 61.7588C384.209 58.6209 386.375 57.9863 387.85 57.9863V41.9863C380.641 41.9863 374.528 45.5529 369.594 50.8174L381.268 61.7588ZM387.85 57.9863C390.618 57.9863 391.545 58.7302 391.936 59.155L403.696 48.3059C399.483 43.7385 393.764 41.9863 387.85 41.9863V57.9863ZM391.957 59.1772C392.727 60.0057 393.297 61.1399 393.297 63.2227H409.297C409.297 57.6413 407.546 52.4474 403.676 48.2837L391.957 59.1772ZM389.511 53.611C387.959 53.0197 386.467 52.876 385.292 52.876V68.876C385.207 68.876 384.629 68.8729 383.815 68.5628L389.511 53.611ZM385.292 52.876C381.05 52.876 377.92 55.2732 376.049 57.1439L387.363 68.4576C387.626 68.195 387.628 68.2561 387.348 68.4059C387.042 68.5707 386.324 68.876 385.292 68.876V52.876ZM376.049 57.1439C374.056 59.1368 372.493 61.4553 371.402 64.0576L386.157 70.2452C386.437 69.5779 386.825 68.996 387.363 68.4576L376.049 57.1439ZM370.779 67.1514V74.7188H386.779V67.1514H370.779ZM383.393 81.2545C383.462 81.2056 383.714 81.0381 384.244 80.7166L375.951 67.0334C375.322 67.415 374.694 67.81 374.166 68.183L383.393 81.2545ZM384.302 80.6814C385.101 80.1877 385.917 79.6333 386.745 79.0335L377.353 66.0798C376.774 66.4995 376.29 66.824 375.894 67.0686L384.302 80.6814ZM386.688 79.074C391.543 75.6183 396.271 70.5269 396.271 63.5391H380.271C380.271 63.1512 380.429 63.1122 380.131 63.5437C379.786 64.0439 379.002 64.9057 377.409 66.0393L386.688 79.074ZM396.271 63.5391C396.271 61.7673 395.879 59.6279 394.559 57.6155C393.209 55.5583 391.324 54.2946 389.486 53.6013L383.841 68.5725C383.074 68.2835 381.993 67.6306 381.18 66.3909C380.396 65.1958 380.271 64.0803 380.271 63.5391H396.271ZM410.156 81.0996L404.685 86.9359L404.704 86.9542L404.724 86.9724L410.156 81.0996ZM406.781 76.1426L399.385 79.1918L399.401 79.2312L399.418 79.2703L406.781 76.1426ZM406.228 63.6973L398.508 61.5957L398.506 61.6059L406.228 63.6973ZM411.026 55.2334L416.683 60.8903L416.728 60.8454L416.772 60.7998L411.026 55.2334ZM414.665 52.3857L418.673 59.3092L418.685 59.3026L418.696 59.296L414.665 52.3857ZM431.382 53.0186L436.67 47.0157L436.66 47.0065L431.382 53.0186ZM433.307 55.2598L426.586 59.6L432.149 68.2138L439.151 60.7224L433.307 55.2598ZM437.077 51.2256V43.2256H433.604L431.233 45.763L437.077 51.2256ZM445.726 51.2256H453.726V43.2256H445.726V51.2256ZM445.726 84V92H453.726V84H445.726ZM437.077 84L430.495 88.5471L432.88 92H437.077V84ZM433.307 78.542L439.889 73.9949L433.243 64.3752L426.684 74.054L433.307 78.542ZM420.202 84.9492L420.178 76.9493L420.147 76.9493L420.115 76.9497L420.202 84.9492ZM415.008 84L417.667 76.4548L417.646 76.4474L417.625 76.4401L415.008 84ZM431.514 61.166H439.514V56.5711L435.545 54.2558L431.514 61.166ZM426.451 61.5615L430.746 68.3108L430.762 68.3009L430.777 68.291L426.451 61.5615ZM423.841 63.9082L417.639 58.8548L417.631 58.864L417.624 58.8731L423.841 63.9082ZM422.681 73.6641L418.243 80.3205L418.258 80.3307L418.274 80.3409L422.681 73.6641ZM426.688 73.4268L429.734 80.8242L429.752 80.8168L429.77 80.8093L426.688 73.4268ZM431.514 70.5L436.695 76.5955L439.514 74.1995V70.5H431.514ZM415.628 75.2633C415.126 74.7926 414.605 74.0994 414.144 73.0148L399.418 79.2703C400.645 82.1585 402.374 84.7699 404.685 86.9359L415.628 75.2633ZM414.177 73.0933C413.774 72.1159 413.542 71.0053 413.542 69.6826H397.542C397.542 72.9654 398.136 76.1615 399.385 79.1918L414.177 73.0933ZM413.542 69.6826C413.542 67.8769 413.725 66.6182 413.949 65.7886L398.506 61.6059C397.816 64.1513 397.542 66.8828 397.542 69.6826H413.542ZM413.947 65.7988C414.524 63.6793 415.459 62.1149 416.683 60.8903L405.37 49.5765C402.024 52.9222 399.76 57.0003 398.508 61.5957L413.947 65.7988ZM416.772 60.7998C417.356 60.1973 417.986 59.7072 418.673 59.3092L410.657 45.4623C408.672 46.6112 406.876 48.0195 405.28 49.667L416.772 60.7998ZM418.696 59.296C420.271 58.3774 421.779 57.9863 423.34 57.9863V41.9863C418.819 41.9863 414.544 43.1949 410.634 45.4755L418.696 59.296ZM423.34 57.9863C424.452 57.9863 425.258 58.2879 426.104 59.0306L436.66 47.0065C432.9 43.7062 428.345 41.9863 423.34 41.9863V57.9863ZM426.094 59.0214C426.269 59.1759 426.432 59.3606 426.586 59.6L440.027 50.9196C439.092 49.4714 437.971 48.162 436.67 47.0157L426.094 59.0214ZM439.151 60.7224L442.922 56.6882L431.233 45.763L427.462 49.7971L439.151 60.7224ZM437.077 59.2256H445.726V43.2256H437.077V59.2256ZM437.726 51.2256V84H453.726V51.2256H437.726ZM445.726 76H437.077V92H445.726V76ZM443.659 79.4529L439.889 73.9949L426.725 83.0891L430.495 88.5471L443.659 79.4529ZM426.684 74.054C425.51 75.7867 423.815 76.9383 420.178 76.9493L420.226 92.9492C428.297 92.9249 435.338 89.8051 439.929 83.03L426.684 74.054ZM420.115 76.9497C419.606 76.9552 418.81 76.8577 417.667 76.4548L412.349 91.5452C414.897 92.443 417.564 92.9784 420.289 92.9487L420.115 76.9497ZM417.625 76.4401C416.831 76.1653 416.175 75.7691 415.589 75.2268L404.724 86.9724C406.95 89.0317 409.528 90.569 412.391 91.5599L417.625 76.4401ZM435.545 54.2558C433.465 53.0425 431.258 52.6123 429.246 52.6123V68.6123C428.992 68.6123 428.297 68.5512 427.483 68.0762L435.545 54.2558ZM429.246 52.6123C426.402 52.6123 423.982 53.6384 422.125 54.8321L430.777 68.291C430.889 68.219 430.332 68.6123 429.246 68.6123V52.6123ZM422.156 54.8122C420.419 55.9176 418.916 57.2875 417.639 58.8548L430.043 68.9616C430.312 68.6305 430.55 68.4359 430.746 68.3108L422.156 54.8122ZM417.624 58.8731C415.038 62.0655 413.257 65.95 413.257 70.3945H429.257C429.257 70.3689 429.257 70.2812 429.335 70.0857C429.42 69.8716 429.617 69.4877 430.058 68.9433L417.624 58.8731ZM413.257 70.3945C413.257 73.5677 414.318 77.7039 418.243 80.3205L427.118 67.0077C427.977 67.5802 428.599 68.3768 428.947 69.1779C429.26 69.8952 429.257 70.3853 429.257 70.3945H413.257ZM418.274 80.3409C422.695 83.259 427.474 81.7548 429.734 80.8242L423.642 66.0293C423.231 66.1989 423.352 66.0844 423.869 66.0538C424.455 66.0191 425.735 66.0943 427.087 66.9872L418.274 80.3409ZM429.77 80.8093C432.295 79.7554 434.621 78.3583 436.695 76.5955L426.332 64.4045C425.594 65.0323 424.703 65.5864 423.606 66.0443L429.77 80.8093ZM439.514 70.5V61.166H423.514V70.5H439.514ZM467.03 84V92H475.03V84H467.03ZM452.08 84H444.08V92H452.08V84ZM452.08 39.624V31.624H444.08V39.624H452.08ZM467.03 39.624H475.03V31.624H467.03V39.624ZM467.03 76H452.08V92H467.03V76ZM460.08 84V39.624H444.08V84H460.08ZM452.08 47.624H467.03V31.624H452.08V47.624ZM459.03 39.624V84H475.03V39.624H459.03ZM477.076 81.0996L471.605 86.9359L471.624 86.9542L471.644 86.9724L477.076 81.0996ZM473.701 76.1426L466.305 79.1918L466.321 79.2312L466.338 79.2703L473.701 76.1426ZM473.147 63.6973L465.428 61.5957L465.426 61.6059L473.147 63.6973ZM477.946 55.2334L483.603 60.8903L483.648 60.8454L483.692 60.7998L477.946 55.2334ZM481.585 52.3857L485.593 59.3092L485.605 59.3026L485.616 59.296L481.585 52.3857ZM498.302 53.0186L503.59 47.0157L503.58 47.0065L498.302 53.0186ZM500.227 55.2598L493.506 59.6L499.069 68.2138L506.071 60.7224L500.227 55.2598ZM503.997 51.2256V43.2256H500.524L498.152 45.763L503.997 51.2256ZM512.646 51.2256H520.646V43.2256H512.646V51.2256ZM512.646 84V92H520.646V84H512.646ZM503.997 84L497.415 88.5471L499.8 92H503.997V84ZM500.227 78.542L506.809 73.9949L500.163 64.3752L493.604 74.054L500.227 78.542ZM487.122 84.9492L487.098 76.9493L487.067 76.9493L487.035 76.9497L487.122 84.9492ZM481.928 84L484.587 76.4548L484.566 76.4474L484.545 76.4401L481.928 84ZM498.434 61.166H506.434V56.5711L502.465 54.2558L498.434 61.166ZM493.371 61.5615L497.666 68.3108L497.682 68.3009L497.697 68.291L493.371 61.5615ZM490.761 63.9082L484.559 58.8548L484.551 58.864L484.544 58.8731L490.761 63.9082ZM489.601 73.6641L485.163 80.3205L485.178 80.3307L485.194 80.3409L489.601 73.6641ZM493.608 73.4268L496.654 80.8242L496.672 80.8168L496.69 80.8093L493.608 73.4268ZM498.434 70.5L503.615 76.5955L506.434 74.1995V70.5H498.434ZM482.548 75.2633C482.046 74.7926 481.525 74.0994 481.064 73.0148L466.338 79.2703C467.565 82.1585 469.294 84.7699 471.605 86.9359L482.548 75.2633ZM481.097 73.0933C480.694 72.1159 480.462 71.0053 480.462 69.6826H464.462C464.462 72.9654 465.056 76.1615 466.305 79.1918L481.097 73.0933ZM480.462 69.6826C480.462 67.8769 480.645 66.6182 480.869 65.7886L465.426 61.6059C464.736 64.1513 464.462 66.8828 464.462 69.6826H480.462ZM480.867 65.7988C481.444 63.6793 482.378 62.1149 483.603 60.8903L472.289 49.5765C468.944 52.9222 466.68 57.0003 465.428 61.5957L480.867 65.7988ZM483.692 60.7998C484.276 60.1973 484.906 59.7072 485.593 59.3092L477.577 45.4623C475.592 46.6112 473.796 48.0195 472.2 49.667L483.692 60.7998ZM485.616 59.296C487.191 58.3774 488.699 57.9863 490.26 57.9863V41.9863C485.739 41.9863 481.464 43.1949 477.554 45.4755L485.616 59.296ZM490.26 57.9863C491.372 57.9863 492.178 58.2879 493.024 59.0306L503.58 47.0065C499.82 43.7062 495.264 41.9863 490.26 41.9863V57.9863ZM493.014 59.0214C493.189 59.1759 493.352 59.3606 493.506 59.6L506.947 50.9196C506.012 49.4714 504.891 48.162 503.59 47.0157L493.014 59.0214ZM506.071 60.7224L509.842 56.6882L498.152 45.763L494.382 49.7971L506.071 60.7224ZM503.997 59.2256H512.646V43.2256H503.997V59.2256ZM504.646 51.2256V84H520.646V51.2256H504.646ZM512.646 76H503.997V92H512.646V76ZM510.579 79.4529L506.809 73.9949L493.644 83.0891L497.415 88.5471L510.579 79.4529ZM493.604 74.054C492.43 75.7867 490.735 76.9383 487.098 76.9493L487.146 92.9492C495.217 92.9249 502.258 89.8051 506.849 83.03L493.604 74.054ZM487.035 76.9497C486.526 76.9552 485.73 76.8577 484.587 76.4548L479.269 91.5452C481.817 92.443 484.484 92.9784 487.209 92.9487L487.035 76.9497ZM484.545 76.4401C483.751 76.1653 483.095 75.7691 482.509 75.2268L471.644 86.9724C473.87 89.0317 476.448 90.569 479.311 91.5599L484.545 76.4401ZM502.465 54.2558C500.385 53.0425 498.178 52.6123 496.166 52.6123V68.6123C495.912 68.6123 495.217 68.5512 494.403 68.0762L502.465 54.2558ZM496.166 52.6123C493.322 52.6123 490.902 53.6384 489.045 54.8321L497.697 68.291C497.809 68.219 497.252 68.6123 496.166 68.6123V52.6123ZM489.076 54.8122C487.339 55.9176 485.836 57.2875 484.559 58.8548L496.963 68.9616C497.232 68.6305 497.47 68.4359 497.666 68.3108L489.076 54.8122ZM484.544 58.8731C481.958 62.0655 480.177 65.95 480.177 70.3945H496.177C496.177 70.3689 496.177 70.2812 496.255 70.0857C496.34 69.8716 496.537 69.4877 496.978 68.9433L484.544 58.8731ZM480.177 70.3945C480.177 73.5677 481.238 77.7039 485.163 80.3205L494.038 67.0077C494.897 67.5802 495.519 68.3768 495.867 69.1779C496.18 69.8952 496.177 70.3853 496.177 70.3945H480.177ZM485.194 80.3409C489.615 83.259 494.394 81.7548 496.654 80.8242L490.562 66.0293C490.151 66.1989 490.272 66.0844 490.789 66.0538C491.375 66.0191 492.654 66.0943 494.007 66.9872L485.194 80.3409ZM496.69 80.8093C499.215 79.7554 501.541 78.3583 503.615 76.5955L493.252 64.4045C492.514 65.0323 491.623 65.5864 490.526 66.0443L496.69 80.8093ZM506.434 70.5V61.166H490.434V70.5H506.434ZM536.719 60.876L529.579 64.4849L537.023 79.2118L543.974 64.246L536.719 60.876ZM541.201 51.2256V43.2256H536.096L533.946 47.8555L541.201 51.2256ZM553.778 51.2256L560.951 54.7686L566.653 43.2256H553.778V51.2256ZM537.615 83.9473L530.443 80.4043L530.396 80.4989L530.352 80.5948L537.615 83.9473ZM533.423 83.9473L526.324 87.6366L526.351 87.6886L526.379 87.7401L533.423 83.9473ZM516.416 51.2256V43.2256H503.242L509.318 54.915L516.416 51.2256ZM531.841 51.2256L538.981 47.6167L536.761 43.2256H531.841V51.2256ZM543.974 64.246L548.457 54.5956L533.946 47.8555L529.463 57.5059L543.974 64.246ZM541.201 59.2256H553.778V43.2256H541.201V59.2256ZM546.606 47.6826L530.443 80.4043L544.788 87.4903L560.951 54.7686L546.606 47.6826ZM530.352 80.5948C530.967 79.2613 532.031 78.1907 533.286 77.5631C534.391 77.0105 535.286 76.9756 535.559 76.9756V92.9756C538.289 92.9756 542.742 91.9298 544.879 87.2997L530.352 80.5948ZM535.559 76.9756C535.849 76.9756 536.678 77.0165 537.704 77.5105C538.846 78.0601 539.838 78.9867 540.467 80.1545L526.379 87.7401C528.632 91.9232 532.758 92.9756 535.559 92.9756V76.9756ZM540.521 80.2579L523.514 47.5362L509.318 54.915L526.324 87.6366L540.521 80.2579ZM516.416 59.2256H531.841V43.2256H516.416V59.2256ZM524.701 54.8345L529.579 64.4849L543.858 57.2671L538.981 47.6167L524.701 54.8345ZM581.147 63.5918V71.5918H589.147V63.5918H581.147ZM573.58 68.707L565.581 68.5737L565.58 68.6404V68.707H573.58ZM573.58 84V92H581.58V84H573.58ZM557.707 84H549.707V92H557.707V84ZM557.707 51.2256V43.2256H549.707V51.2256H557.707ZM573.58 51.2256H581.58V43.2256H573.58V51.2256ZM573.58 54.7324H565.58V81.2984L580.25 59.15L573.58 54.7324ZM576.902 51.4893L572.76 44.6453L572.74 44.6574L572.72 44.6698L576.902 51.4893ZM581.147 50.0391H589.147V41.1473L580.305 42.0835L581.147 50.0391ZM581.147 55.5918C577.503 55.5918 574.284 56.9342 571.617 58.776L580.711 71.9408C581.082 71.6841 581.299 71.5957 581.362 71.5737C581.411 71.5562 581.328 71.5918 581.147 71.5918V55.5918ZM571.617 58.776C569.68 60.1145 565.669 63.2797 565.581 68.5737L581.579 68.8403C581.551 70.5334 580.843 71.6155 580.573 71.9662C580.322 72.2911 580.25 72.2593 580.711 71.9408L571.617 58.776ZM565.58 68.707V84H581.58V68.707H565.58ZM573.58 76H557.707V92H573.58V76ZM565.707 84V51.2256H549.707V84H565.707ZM557.707 59.2256H573.58V43.2256H557.707V59.2256ZM565.58 51.2256V54.7324H581.58V51.2256H565.58ZM580.25 59.15C580.535 58.7194 580.81 58.4773 581.085 58.3088L572.72 44.6698C570.358 46.1184 568.418 48.0385 566.91 50.3148L580.25 59.15ZM581.045 58.3333C581.416 58.1084 581.71 58.0242 581.99 57.9946L580.305 42.0835C577.596 42.3703 575.06 43.2529 572.76 44.6453L581.045 58.3333ZM573.147 50.0391V63.5918H589.147V50.0391H573.147ZM589.453 81.0996L583.982 86.9359L584.001 86.9542L584.021 86.9724L589.453 81.0996ZM586.078 76.1426L578.682 79.1918L578.698 79.2312L578.715 79.2703L586.078 76.1426ZM585.524 63.6973L577.805 61.5957L577.803 61.6059L585.524 63.6973ZM590.323 55.2334L595.98 60.8903L596.025 60.8454L596.069 60.7998L590.323 55.2334ZM593.962 52.3857L597.97 59.3092L597.982 59.3026L597.993 59.296L593.962 52.3857ZM610.679 53.0186L615.967 47.0157L615.956 47.0065L610.679 53.0186ZM612.604 55.2598L605.883 59.6L611.446 68.2138L618.448 60.7224L612.604 55.2598ZM616.374 51.2256V43.2256H612.901L610.529 45.763L616.374 51.2256ZM625.022 51.2256H633.022V43.2256H625.022V51.2256ZM625.022 84V92H633.022V84H625.022ZM616.374 84L609.792 88.5471L612.177 92H616.374V84ZM612.604 78.542L619.186 73.9949L612.54 64.3752L605.981 74.054L612.604 78.542ZM599.499 84.9492L599.475 76.9493L599.444 76.9493L599.412 76.9497L599.499 84.9492ZM594.305 84L596.963 76.4548L596.943 76.4474L596.922 76.4401L594.305 84ZM610.811 61.166H618.811V56.5711L614.842 54.2558L610.811 61.166ZM605.748 61.5615L610.043 68.3108L610.059 68.3009L610.074 68.291L605.748 61.5615ZM603.138 63.9082L596.936 58.8548L596.928 58.864L596.921 58.8731L603.138 63.9082ZM601.978 73.6641L597.54 80.3205L597.555 80.3307L597.571 80.3409L601.978 73.6641ZM605.985 73.4268L609.031 80.8242L609.049 80.8168L609.067 80.8093L605.985 73.4268ZM610.811 70.5L615.992 76.5955L618.811 74.1995V70.5H610.811ZM594.925 75.2633C594.423 74.7926 593.902 74.0994 593.441 73.0148L578.715 79.2703C579.942 82.1585 581.671 84.7699 583.982 86.9359L594.925 75.2633ZM593.474 73.0933C593.071 72.1159 592.839 71.0053 592.839 69.6826H576.839C576.839 72.9654 577.433 76.1615 578.682 79.1918L593.474 73.0933ZM592.839 69.6826C592.839 67.8769 593.022 66.6182 593.246 65.7886L577.803 61.6059C577.113 64.1513 576.839 66.8828 576.839 69.6826H592.839ZM593.243 65.7988C593.82 63.6793 594.755 62.1149 595.98 60.8903L584.666 49.5765C581.321 52.9222 579.056 57.0003 577.805 61.5957L593.243 65.7988ZM596.069 60.7998C596.653 60.1973 597.283 59.7072 597.97 59.3092L589.954 45.4623C587.969 46.6112 586.173 48.0195 584.577 49.667L596.069 60.7998ZM597.993 59.296C599.568 58.3774 601.076 57.9863 602.637 57.9863V41.9863C598.116 41.9863 593.841 43.1949 589.931 45.4755L597.993 59.296ZM602.637 57.9863C603.749 57.9863 604.555 58.2879 605.401 59.0306L615.956 47.0065C612.197 43.7062 607.641 41.9863 602.637 41.9863V57.9863ZM605.39 59.0214C605.566 59.1759 605.729 59.3606 605.883 59.6L619.324 50.9196C618.389 49.4714 617.268 48.162 615.967 47.0157L605.39 59.0214ZM618.448 60.7224L622.219 56.6882L610.529 45.763L606.759 49.7971L618.448 60.7224ZM616.374 59.2256H625.022V43.2256H616.374V59.2256ZM617.022 51.2256V84H633.022V51.2256H617.022ZM625.022 76H616.374V92H625.022V76ZM622.956 79.4529L619.186 73.9949L606.021 83.0891L609.792 88.5471L622.956 79.4529ZM605.981 74.054C604.807 75.7867 603.111 76.9383 599.475 76.9493L599.523 92.9492C607.594 92.9249 614.635 89.8051 619.226 83.03L605.981 74.054ZM599.412 76.9497C598.903 76.9552 598.107 76.8577 596.963 76.4548L591.646 91.5452C594.194 92.443 596.861 92.9784 599.586 92.9487L599.412 76.9497ZM596.922 76.4401C596.128 76.1653 595.472 75.7691 594.885 75.2268L584.021 86.9724C586.247 89.0317 588.825 90.569 591.688 91.5599L596.922 76.4401ZM614.842 54.2558C612.762 53.0425 610.555 52.6123 608.543 52.6123V68.6123C608.289 68.6123 607.594 68.5512 606.78 68.0762L614.842 54.2558ZM608.543 52.6123C605.699 52.6123 603.279 53.6384 601.422 54.8321L610.074 68.291C610.186 68.219 609.629 68.6123 608.543 68.6123V52.6123ZM601.453 54.8122C599.716 55.9176 598.213 57.2875 596.936 58.8548L609.34 68.9616C609.609 68.6305 609.846 68.4359 610.043 68.3108L601.453 54.8122ZM596.921 58.8731C594.335 62.0655 592.554 65.95 592.554 70.3945H608.554C608.554 70.3689 608.554 70.2812 608.632 70.0857C608.717 69.8716 608.914 69.4877 609.354 68.9433L596.921 58.8731ZM592.554 70.3945C592.554 73.5677 593.615 77.7039 597.54 80.3205L606.415 67.0077C607.274 67.5802 607.895 68.3768 608.244 69.1779C608.557 69.8952 608.554 70.3853 608.554 70.3945H592.554ZM597.571 80.3409C601.992 83.259 606.771 81.7548 609.031 80.8242L602.939 66.0293C602.528 66.1989 602.649 66.0844 603.166 66.0538C603.752 66.0191 605.031 66.0943 606.384 66.9872L597.571 80.3409ZM609.067 80.8093C611.592 79.7554 613.918 78.3583 615.992 76.5955L605.629 64.4045C604.891 65.0323 604 65.5864 602.903 66.0443L609.067 80.8093ZM618.811 70.5V61.166H602.811V70.5H618.811Z" fill="black" mask="url(#path-1-outside-1_37_159)"/>
</svg>
